<?xml version="1.0" encoding="utf-8"?>
<!-- Generator: Adobe Illustrator 15.1.0, SVG Export Plug-In . SVG Version: 6.00 Build 0)  -->
<!DOCTYPE svg PUBLIC "-//W3C//DTD SVG 1.1//EN" "http://www.w3.org/Graphics/SVG/1.1/DTD/svg11.dtd">
<svg version="1.1" id="Layer_1" xmlns="http://www.w3.org/2000/svg" xmlns:xlink="http://www.w3.org/1999/xlink" x="0px" y="0px"
	 width="100px" height="100px" viewBox="0 0 100 100" enable-background="new 0 0 100 100" xml:space="preserve">
<g>
	<path d="M41.147,21.777l-1.557,1.705l-0.209,0.216c-0.372,0.385-0.739,0.794-1.099,1.213L1.702,64.92
		c-3.189,3.078-3.276,8.16-0.199,11.35l1.101,1.139c3.08,3.189,8.162,3.277,11.35,0.199L49.547,50l35.076,26.917
		c3.189,3.08,8.271,2.991,11.351-0.198l1.101-1.14c3.08-3.188,2.99-8.27-0.197-11.349L58.851,24.136
		c-0.136-0.168-0.264-0.345-0.411-0.498l-1.529-1.583C52.634,17.627,45.575,17.503,41.147,21.777z"/>
</g>
</svg>
